<svg version="1.1" xmlns="http://www.w3.org/2000/svg" xmlns:xlink="http://www.w3.org/1999/xlink" width="2014" height="730"><desc>title%20MASH%20data%20import%20-%20proof%20of%20concept%0A%0Aparticipant%20Google%20Form%0Aparticipant%20Google%20Sheet%0Aparticipant%20Google%20Script%0Aparticipant%20AWS%20S3%0Aparticipant%20AWS%20SQS%0Aparticipant%20AWS%20Lambda%0Amaterialdesignicons%20f14d%20Google%20Doc%0Aparticipant%20SC%20API%0Adatabase%20SC%20DB%0Anote%20over%20Google%20Form%2CGoogle%20Sheet%3AGoogle%20automation%0AGoogle%20Form-%3EGoogle%20Sheet%3Aform%20submission%0AGoogle%20Sheet-%3EGoogle%20Script%3Atriggers%20on%20form%20submit%0AGoogle%20Sheet%3C-Google%20Script%3Aupdate%20sheet%20with%20generated%20unique%20ID%0AGoogle%20Script-%3EAWS%20S3%3Asend%20form%20data%20and%20unique%20ID%20(and%20sheet%20ID%3F)%0AAWS%20S3-%3EAWS%20SQS%3Amessage%20is%20sent%20to%20SQS%0AAWS%20SQS-%3EAWS%20Lambda%3Asend%20message%20to%20Lambda%0AAWS%20Lambda-%3EGoogle%20Doc%3Agenerate%20Google%20Doc%20using%20form%20data%20in%20message%5Cn%0AAWS%20Lambda-%3EGoogle%20Sheet%3Aupdate%20sheet%20with%20Google%20Doc%20edit%20URL%0AAWS%20Lambda-%3ESC%20API%3Asend%20form%20data%2C%20unique%20ID%20and%20Google%20Doc%20URL%0ASC%20API-%3ESC%20DB%3Asave%20data%20into%20DB</desc><defs/><g><g/><g/><g/><g/><g/><g/><g/><g/><g/><g/><g/><g/><g/><g><rect fill="white" stroke="none" x="0" y="0" width="2014" height="730"/></g><g><text fill="black" stroke="none" font-family="sans-serif" font-size="16.5pt" font-style="normal" font-weight="normal" text-decoration="normal" x="828.6233057658848" y="24.50280495" text-anchor="start" dominant-baseline="alphabetic" xml:space="preserve">MASH data import - proof of concept</text></g><g/><g><path fill="none" stroke="black" paint-order="fill stroke markers" d=" M 68.66509331204297 128.884754037 L 68.66509331204297 730.0202354769999" stroke-miterlimit="10" stroke-width="1.3612669416666667" stroke-dasharray="12.565541,5.445067766666667"/><path fill="none" stroke="black" paint-order="fill stroke markers" d=" M 218.94713202740752 128.884754037 L 218.94713202740752 730.0202354769999" stroke-miterlimit="10" stroke-width="1.3612669416666667" stroke-dasharray="12.565541,5.445067766666667"/><path fill="none" stroke="black" paint-order="fill stroke markers" d=" M 514.3544148833971 128.884754037 L 514.3544148833971 730.0202354769999" stroke-miterlimit="10" stroke-width="1.3612669416666667" stroke-dasharray="12.565541,5.445067766666667"/><path fill="none" stroke="black" paint-order="fill stroke markers" d=" M 856.1825961768867 128.884754037 L 856.1825961768867 730.0202354769999" stroke-miterlimit="10" stroke-width="1.3612669416666667" stroke-dasharray="12.565541,5.445067766666667"/><path fill="none" stroke="black" paint-order="fill stroke markers" d=" M 1057.0015001266263 128.884754037 L 1057.0015001266263 730.0202354769999" stroke-miterlimit="10" stroke-width="1.3612669416666667" stroke-dasharray="12.565541,5.445067766666667"/><path fill="none" stroke="black" paint-order="fill stroke markers" d=" M 1269.259201073436 128.884754037 L 1269.259201073436 730.0202354769999" stroke-miterlimit="10" stroke-width="1.3612669416666667" stroke-dasharray="12.565541,5.445067766666667"/><path fill="none" stroke="black" paint-order="fill stroke markers" d=" M 1636.3414412048164 128.884754037 L 1636.3414412048164 730.0202354769999" stroke-miterlimit="10" stroke-width="1.3612669416666667" stroke-dasharray="12.565541,5.445067766666667"/><path fill="none" stroke="black" paint-order="fill stroke markers" d=" M 1814.1775289218738 128.884754037 L 1814.1775289218738 730.0202354769999" stroke-miterlimit="10" stroke-width="1.3612669416666667" stroke-dasharray="12.565541,5.445067766666667"/><path fill="none" stroke="black" paint-order="fill stroke markers" d=" M 1973.4574314067695 128.884754037 L 1973.4574314067695 730.0202354769999" stroke-miterlimit="10" stroke-width="1.3612669416666667" stroke-dasharray="12.565541,5.445067766666667"/></g><g><path fill="none" stroke="none"/><g><path fill="white" stroke="black" paint-order="fill stroke markers" d=" M 8.167601649999995 84.779705127 L 129.16258497408595 84.779705127 L 129.16258497408595 128.884754037 L 8.167601649999995 128.884754037 L 8.167601649999995 84.779705127 Z" stroke-miterlimit="10" stroke-width="2.613632528" stroke-dasharray=""/></g><g><g/><text fill="black" stroke="none" font-family="sans-serif" font-size="11pt" font-style="normal" font-weight="normal" text-decoration="normal" x="25.8912972305" y="112.549550737" text-anchor="start" dominant-baseline="alphabetic" xml:space="preserve">Google Form</text></g><path fill="none" stroke="none"/><g><path fill="white" stroke="black" paint-order="fill stroke markers" d=" M 156.39524278235672 84.779705127 L 281.4990212724583 84.779705127 L 281.4990212724583 128.884754037 L 156.39524278235672 128.884754037 L 156.39524278235672 84.779705127 Z" stroke-miterlimit="10" stroke-width="2.613632528" stroke-dasharray=""/></g><g><g/><text fill="black" stroke="none" font-family="sans-serif" font-size="11pt" font-style="normal" font-weight="normal" text-decoration="normal" x="174.11893836285674" y="112.549550737" text-anchor="start" dominant-baseline="alphabetic" xml:space="preserve">Google Sheet</text></g><path fill="none" stroke="none"/><g><path fill="white" stroke="black" paint-order="fill stroke markers" d=" M 452.22128784537756 84.779705127 L 576.4875419214167 84.779705127 L 576.4875419214167 128.884754037 L 452.22128784537756 128.884754037 L 452.22128784537756 84.779705127 Z" stroke-miterlimit="10" stroke-width="2.613632528" stroke-dasharray=""/></g><g><g/><text fill="black" stroke="none" font-family="sans-serif" font-size="11pt" font-style="normal" font-weight="normal" text-decoration="normal" x="469.9449834258776" y="112.549550737" text-anchor="start" dominant-baseline="alphabetic" xml:space="preserve">Google Script</text></g><path fill="none" stroke="none"/><g><path fill="white" stroke="black" paint-order="fill stroke markers" d=" M 811.0322877423828 84.779705127 L 901.3329046113906 84.779705127 L 901.3329046113906 128.884754037 L 811.0322877423828 128.884754037 L 811.0322877423828 84.779705127 Z" stroke-miterlimit="10" stroke-width="2.613632528" stroke-dasharray=""/></g><g><g/><text fill="black" stroke="none" font-family="sans-serif" font-size="11pt" font-style="normal" font-weight="normal" text-decoration="normal" x="828.7559833228828" y="112.549550737" text-anchor="start" dominant-baseline="alphabetic" xml:space="preserve">AWS S3</text></g><path fill="none" stroke="none"/><g><path fill="white" stroke="black" paint-order="fill stroke markers" d=" M 1005.3372299001302 84.779705127 L 1108.6657703531223 84.779705127 L 1108.6657703531223 128.884754037 L 1005.3372299001302 128.884754037 L 1005.3372299001302 84.779705127 Z" stroke-miterlimit="10" stroke-width="2.613632528" stroke-dasharray=""/></g><g><g/><text fill="black" stroke="none" font-family="sans-serif" font-size="11pt" font-style="normal" font-weight="normal" text-decoration="normal" x="1023.0609254806302" y="112.549550737" text-anchor="start" dominant-baseline="alphabetic" xml:space="preserve">AWS SQS</text></g><path fill="none" stroke="none"/><g><path fill="white" stroke="black" paint-order="fill stroke markers" d=" M 1206.5856306150065 84.779705127 L 1331.932771531866 84.779705127 L 1331.932771531866 128.884754037 L 1206.5856306150065 128.884754037 L 1206.5856306150065 84.779705127 Z" stroke-miterlimit="10" stroke-width="2.613632528" stroke-dasharray=""/></g><g><g/><text fill="black" stroke="none" font-family="sans-serif" font-size="11pt" font-style="normal" font-weight="normal" text-decoration="normal" x="1224.3093261955064" y="112.549550737" text-anchor="start" dominant-baseline="alphabetic" xml:space="preserve">AWS Lambda</text></g><g><g/><text fill="black" stroke="none" font-family="&quot;Material Design Icons&quot;" font-size="44pt" font-style="normal" font-weight="normal" text-decoration="normal" x="1607.0114470031563" y="107.648989747" text-anchor="start" dominant-baseline="alphabetic" xml:space="preserve"></text></g><g><g/><text fill="black" stroke="none" font-family="sans-serif" font-size="11pt" font-style="normal" font-weight="normal" text-decoration="normal" x="1597.6335020568672" y="123.98419304699999" text-anchor="start" dominant-baseline="alphabetic" xml:space="preserve">Google Doc</text></g><path fill="none" stroke="none"/><g><path fill="white" stroke="black" paint-order="fill stroke markers" d=" M 1772.4201953408856 84.779705127 L 1855.9348625028622 84.779705127 L 1855.9348625028622 128.884754037 L 1772.4201953408856 128.884754037 L 1772.4201953408856 84.779705127 Z" stroke-miterlimit="10" stroke-width="2.613632528" stroke-dasharray=""/></g><g><g/><text fill="black" stroke="none" font-family="sans-serif" font-size="11pt" font-style="normal" font-weight="normal" text-decoration="normal" x="1790.1438909213855" y="112.549550737" text-anchor="start" dominant-baseline="alphabetic" xml:space="preserve">SC API</text></g><g><path fill="white" stroke="black" paint-order="fill stroke markers" d=" M 1949.6080345887694 96.867755569 L 1949.6080345887694 62.563828639 L 1997.3068282247696 62.563828639 L 1997.3068282247696 96.867755569" stroke-miterlimit="10" stroke-width="2.7769845610000004" stroke-dasharray=""/><path fill="white" stroke="black" paint-order="fill stroke markers" d=" M 1997.3068282247696 61.3713587981 L 1997.3056357648659 61.47916934301662 L 1997.3020585043998 61.58696910696859 L 1997.2960968010943 61.69474731006935 L 1997.2877512511152 61.8024931745884 L 1997.27702268901 61.91019592602908 L 1997.2639121876261 62.017844794206 L 1997.2484210580028 62.125429014322044 L 1997.2305508492402 62.232937828044854 L 1997.2103033483443 62.34036048458265 L 1997.187680580048 62.44768624175929 L 1997.1626848066096 62.55490436708851 L 1997.1353185275857 62.66200413884712 L 1997.105584479581 62.76897484714718 L 1997.0734856359759 62.87580579500701 L 1997.0390252066277 62.982486299420856 L 1997.002206637551 63.08900569242717 L 1996.9630336105718 63.19535332217542 L 1996.9215100429599 63.30151855399125 L 1996.877640087038 63.40749077143996 L 1996.8314281297646 63.5132593773881 L 1996.7828787922972 63.618813795063225 L 1996.7319969295293 63.724143469111524 L 1996.6787876296041 63.82923786665337 L 1996.623256213408 63.93408647833659 L 1996.565408234036 64.03867881938739 L 1996.5052494762379 64.1430044306588 L 1996.442785955839 64.24705287967667 L 1996.37802391914 64.35081376168277 L 1996.31096984229 64.45427670067541 L 1996.241630430641 64.55743135044686 L 1996.1700126180765 64.66026739561813 L 1996.0961235663178 64.7627745526704 L 1996.0199706642086 64.86494257097338 L 1995.9415615269759 64.96676123381039 L 1995.8609039954679 65.06822035939997 L 1995.7780061353703 65.16930980191414 L 1995.6928762364005 65.27001945249287 L 1995.6055228114772 65.37033924025505 L 1995.51595459587 65.47025913330548 L 1995.4241805463257 65.56976913973813 L 1995.3302098401734 65.66885930863528 L 1995.234051874405 65.7675197310626 L 1995.1357162647366 65.86574054106009 L 1995.035212844648 65.96351191662859 L 1994.9325516643967 66.06082408071202 L 1994.8277429900156 66.15766730217506 L 1994.7207973022848 66.25403189677627 L 1994.611725295684 66.3499082281365 L 1994.5005378773226 66.4452867087025 L 1994.38724616585 66.54015780070569 L 1994.271861490343 66.63451201711595 L 1994.154395389173 66.72833992259025 L 1994.0348596088522 66.82163213441623 L 1993.9132661028589 66.91437932345046 L 1993.7896270304425 67.00657221505134 L 1993.663954755407 67.0982015900065 L 1993.5362618448755 67.18925828545483 L 1993.4065610680327 67.27973319580266 L 1993.2748653948477 67.36961727363435 L 1993.1411879947784 67.45890153061701 L 1993.0055422354535 67.54757703839935 L 1992.8679416813357 67.6356349295045 L 1992.7284000923657 67.72306639821673 L 1992.5869314225865 67.80986270146201 L 1992.4435498187468 67.89601515968236 L 1992.2982696188874 67.98151515770375 L 1992.1511053509078 68.06635414559763 L 1992.0020717311115 68.15052363953589 L 1991.8511836627367 68.2340152226393 L 1991.6984562344644 68.31682054581911 L 1991.54390471891 68.39893132861202 L 1991.3875445710964 68.48033936000816 L 1991.2293914269083 68.56103649927225 L 1991.069461101528 68.6410146767576 L 1990.9077695878548 68.72026589471311 L 1990.7443330549054 68.79878222808303 L 1990.579167846197 68.87655582529945 L 1990.4122904781127 68.95357890906746 L 1990.2437176382502 69.02984377714286 L 1990.073466183753 69.10534280310242 L 1989.9015531396249 69.18006843710643 L 1989.727995697027 69.25401320665378 L 1989.5528112115585 69.32716971732913 L 1989.3760172015225 69.39953065354239 L 1989.1976313461723 69.47108877926021 L 1989.0176714839452 69.54183693872967 L 1988.836155610677 69.61176805719379 L 1988.6531018778041 69.68087514159897 L 1988.468528590547 69.74915128129439 L 1988.282454206081 69.81658964872294 L 1988.094897331689 69.88318350010411 L 1987.9058767229023 69.94892617610824 L 1987.7154112816245 70.01381110252252 L 1987.5235200542406 70.07783179090838 L 1987.3302222297139 70.14098183925032 L 1987.1355371376653 70.20325493259614 L 1986.9394842464421 70.26464484368842 L 1986.74208316117 70.32514543358717 L 1986.543353621793 70.38475065228383 L 1986.3433155010991 70.44345453930622 L 1986.1419888027342 70.50125122431453 L 1985.9393936592 70.55813492768844 L 1985.7355503298425 70.61409996110503 L 1985.530479198824 70.66914072810756 L 1985.3242007730873 70.72325172466522 L 1985.116735680303 70.77642753972344 L 1984.9081046668073 70.82866285574504 L 1984.6983285955278 70.87995244924193 L 1984.4874284438968 70.9302911912975 L 1984.2754253017538 70.9796740480795 L 1984.0623403692362 71.0280960813434 L 1983.8481949546597 71.07555244892625 L 1983.6330104723875 71.12203840523081 L 1983.4168084406883 71.16754930170019 L 1983.199610479585 71.21208058728268 L 1982.981438308693 71.25562780888683 L 1982.7623137450475 71.29818661182675 L 1982.5422587009223 71.33975274025764 L 1982.321295181638 71.38032203760127 L 1982.0994452833631 71.41989044696174 L 1981.876731190902 71.45845401153106 L 1981.6531751754787 71.49600887498494 L 1981.428799592508 71.5325512818683 L 1981.2036268793618 71.56807757797091 L 1980.9776795531234 71.60258421069277 L 1980.7509802083373 71.63606772939937 L 1980.5235515147488 71.66852478576672 L 1980.2954162150381 71.69995213411627 L 1980.0665971225446 71.73034663173934 L 1979.8371171189874 71.7597052392115 L 1979.6069991521754 71.78802502069648 L 1979.3762662337133 71.81530314423973 L 1979.144941436701 71.84153688205163 L 1978.913047893425 71.86672361078024 L 1978.680608793047 71.8908608117737 L 1978.447647379283 71.913946071332 L 1978.21418694808 71.93597708094846 L 1977.980250845287 71.95695163754044 L 1977.745862464319 71.97686764366978 L 1977.5110452438191 71.99572310775245 L 1977.2758226653134 72.01351614425778 L 1977.0402182508637 72.03024497389691 L 1976.8042555607155 72.04590792380084 L 1976.5679581909408 72.06050342768764 L 1976.3313497710797 72.07403002601906 L 1976.0944539617772 72.08648636614654 L 1975.8572944524167 72.09787120244648 L 1975.6198949587515 72.1081833964447 L 1975.382279220533 72.11742191693043 L 1975.1444709991374 72.12558584005929 L 1974.9064940751884 72.13267434944576 L 1974.66837224618 72.13868673624485 L 1974.4301293240967 72.14362239922286 L 1974.1917891330324 72.14748084481762 L 1973.9533755068073 72.1502616871878 L 1973.7149122865858 72.15196464825142 L 1973.4764233184906 72.15258955771385 L 1973.23793245122 72.15213635308466 L 1972.9994635336623 72.15060507968391 L 1972.76104041251 72.14799589063767 L 1972.522686929877 72.1443090468627 L 1972.2844269209127 72.13954491704027 L 1972.0462842114193 72.1337039775794 L 1971.8082826154696 72.12678681256918 L 1971.5704459330248 72.11879411372033 L 1971.3327979475548 72.10972668029609 L 1971.0953624236604 72.09958541903224 L 1970.8581631046957 72.08837134404646 L 1970.6212237103953 72.07608557673689 L 1970.3845679345009 72.06272934567005 L 1970.1482194423932 72.04830398645788 L 1969.9122018687242 72.0328109416243 L 1969.6765388150545 72.01625176046089 L 1969.4412538474935 71.99862809887196 L 1969.2063704943414 71.97994171920898 L 1968.9719122437382 71.96019449009434 L 1968.7379025413131 71.9393883862345 L 1968.504364787842 71.91752548822251 L 1968.2713223369049 71.89460798232996 L 1968.0387984925533 71.87063816028832 L 1967.8068165069774 71.84561841905983 L 1967.5753995781827 71.81955126059778 L 1967.3445708476693 71.79243929159627 L 1967.1143533981176 71.7642852232296 L 1966.8847702510811 71.73509187088118 L 1966.655844364683 71.7048621538619 L 1966.427598631321 71.67359909511825 L 1966.2000558753782 71.64130582093009 L 1965.973238850941 71.6079855605979 L 1965.7471702395223 71.57364164611994 L 1965.5218726477954 71.53827751185906 L 1965.2973686053315 71.50189669419922 L 1965.0736805623476 71.46450283119185 L 1964.8508308874616 71.42609966219209 L 1964.6288418654556 71.38669102748484 L 1964.4077356950463 71.34628086790075 L 1964.1875344866671 71.30487322442208 L 1963.9682602602547 71.26247223777868 L 1963.7499349430495 71.21908214803388 L 1963.5325803674014 71.17470729416048 L 1963.3162182685862 71.12935211360693 L 1963.1008702826339 71.08302114185344 L 1962.8865579441635 71.0357190119586 L 1962.6733026842305 70.987450454096 L 1962.461125828183 70.93822029508118 L 1962.2500485935298 70.88803345788901 L 1962.0400920878185 70.8368949611614 L 1961.8312773065245 70.7848099187054 L 1961.6236251309522 70.73178353898187 L 1961.417156326146 70.67782112458457 L 1961.2118915388144 70.62292807170999 L 1961.0078512952648 70.56710986961765 L 1960.805055999352 70.51037210008127 L 1960.6035259304363 70.4527204368305 L 1960.4032812413564 70.39416064498364 L 1960.204341956415 70.33469858047107 L 1960.0067279693742 70.27434018944969 L 1959.8104590414682 70.2130915077083 L 1959.6155547994265 70.15095866006402 L 1959.4220347335104 70.08794785974987 L 1959.2299181955657 70.02406540779336 L 1959.039224397086 69.95931769238642 L 1958.849972407292 69.89371118824668 L 1958.662181151225 69.82725245596986 L 1958.4758694078544 69.7599481413738 L 1958.291055808199 69.69180497483389 L 1958.107758833465 69.62282977060998 L 1957.9259968131967 69.55302942616503 L 1957.745787923445 69.4824109214753 L 1957.5671501849488 69.41098131833243 L 1957.390101461333 69.3387477596372 L 1957.214659457322 69.26571746868528 L 1957.0408417169706 69.19189774844492 L 1956.8686656219077 69.1172959808266 L 1956.6981483895995 69.04191962594494 L 1956.5293070716268 68.96577622137262 L 1956.3621585519809 68.88887338138663 L 1956.1967195453744 68.81121879620689 L 1956.0330065955704 68.73282023122718 L 1955.871036073727 68.6536855262387 L 1955.7108241767617 68.573822594646 L 1955.5523869257306 68.49323942267567 L 1955.395740164227 68.41194406857777 L 1955.240899556796 68.32994466181995 L 1955.0878805873697 68.24724940227456 L 1954.9366985577174 68.16386655939866 L 1954.787368585916 68.07980447140702 L 1954.6399056048385 67.99507154443839 L 1954.4943243606601 67.90967625171488 L 1954.3506394113836 67.8236271326946 L 1954.2088651253844 67.73693279221771 L 1954.0690156799728 67.64960189964606 L 1953.9311050599772 67.56164318799608 L 1953.7951470563441 67.47306545306569 L 1953.6611552647612 67.38387755255452 L 1953.5291430842954 67.29408840517834 L 1953.399123716055 67.20370698977703 L 1953.2711101618686 67.11274234441683 L 1953.1451152229847 67.02120356548647 L 1953.0211514987923 66.92909980678756 L 1952.8992313855606 66.83644027861922 L 1952.7793670751992 66.74323424685704 L 1952.6615705540391 66.64949103202653 L 1952.5458536016347 66.55522000837107 L 1952.4322277895847 66.46043060291444 L 1952.320704480375 66.3651322945182 L 1952.2112948262445 66.2693346129338 L 1952.1040097680668 66.17304713784955 L 1951.9988600342585 66.07627949793272 L 1951.8958561397055 65.97904136986665 L 1951.7950083847113 65.88134247738313 L 1951.696326853967 65.78319259028999 L 1951.5998214155443 65.68460152349414 L 1951.5055017199056 65.58557913602012 L 1951.4133771989427 65.48613533002413 L 1951.3234570650307 65.38628004980393 L 1951.2357503101075 65.2860232808043 L 1951.1502657047763 65.18537504861862 L 1951.067011797426 65.08434541798623 L 1950.9859969133781 64.982944491786 L 1950.9072291540533 64.88118241002603 L 1950.830716396162 64.77906934882972 L 1950.7564662909163 64.67661551941809 L 1950.6844862632645 64.5738311670887 L 1950.6147835111499 64.47072657019112 L 1950.5473650047893 64.36731203909913 L 1950.4822374859773 64.26359791517966 L 1950.4194074674115 64.15959456975868 L 1950.3588812320413 64.05531240308405 L 1950.30066483244 63.95076184328555 L 1950.2447640901985 63.84595334533201 L 1950.191184595345 63.74089738998592 L 1950.1399317057844 63.63560448275524 L 1950.0910105467624 63.530085152842965 L 1950.0444260103548 63.42434995209415 L 1950.0001827549756 63.318409453940745 L 1949.9582852049143 63.2122742523443 L 1949.9187375498905 63.105954960736526 L 1949.881543744637 62.99946221095797 L 1949.846707508503 62.892806652194885 L 1949.8142323250834 62.78599894991426 L 1949.7841214418693 62.679049784797314 L 1949.756377869924 62.57196985167143 L 1949.7310043835816 62.464769858440704 L 1949.7080035201698 62.357460525015114 L 1949.6873775797553 62.25005258223858 L 1949.6691286249152 62.14255677081588 L 1949.6532584805298 62.03498384023857 L 1949.6397687336002 61.92734454771006 L 1949.62866073309 61.81964965706991 L 1949.61993558979 61.71190993771744 L 1949.613594176207 61.6041361635348 L 1949.6096371264773 61.49633911180959 L 1949.6080648363027 61.38852956215717 L 1949.6088774629106 61.28071829544265 L 1949.6120749250392 61.172916092702856 L 1949.6176569029449 61.06513373406823 L 1949.6256228384345 60.957381997684834 L 1949.6359719349214 60.84967165863649 L 1949.648703157504 60.74201348786736 L 1949.6638152330713 60.6344182511048 L 1949.6813066504278 60.526896707782825 L 1949.7011756604466 60.41945960996616 L 1949.7234202762434 60.31211770127506 L 1949.7480382733747 60.204881715810956 L 1949.7750271900618 60.097762377083015 L 1949.8043843274352 59.99077039693585 L 1949.8361067498056 59.88391647447831 L 1949.8701912849574 59.7772112950136 L 1949.9066345244655 59.67066552897075 L 1949.9454328240363 59.56428983083758 L 1949.986582303872 59.45809483809524 L 1950.030078849059 59.35209117015452 L 1950.075918109979 59.24628942729389 L 1950.1240955027442 59.14070018959944 L 1950.1746062096554 59.03533401590697 L 1950.227445179684 58.93020144274604 L 1950.2826071289771 58.82531298328635 L 1950.3400865413857 58.72067912628645 L 1950.3998776690166 58.61631033504484 L 1950.4619745328066 58.51221704635366 L 1950.526370923121 58.40840966945505 L 1950.5930604003747 58.30489858500019 L 1950.6620362956755 58.20169414401126 L 1950.7332917114913 58.098806666846365 L 1950.80681952234 57.996246442167475 L 1950.8826123755016 57.894023725911595 L 1950.9606626917541 57.79214874026516 L 1951.0409626661308 57.69063167264185 L 1951.1235042687013 57.58948267466382 L 1951.2082792453741 57.488711861146584 L 1951.295279118722 57.38832930908751 L 1951.3844951888304 57.28834505665816 L 1951.4759185341663 57.18876910220045 L 1951.5695400124719 57.08961140322686 L 1951.665350261677 56.99088187542464 L 1951.7633397008367 56.8925903916643 L 1951.8634985310885 56.794746781012314 L 1951.9658167366329 56.6973608277482 L 1952.0702840857348 56.60044227038614 L 1952.1768901317462 56.5040008007011 L 1952.2856242141515 56.40804606275968 L 1952.396475459633 56.31258765195572 L 1952.5094327831582 56.217635114050736 L 1952.6244848890892 56.12319794421941 L 1952.7416202723114 56.029285586100016 L 1952.860827219384 55.93590743085011 L 1952.9820938097114 55.8430728162074 L 1953.1054079167357 55.75079102555599 L 1953.2307572091493 55.65907128699804 L 1953.3581291521268 55.56792277243099 L 1953.4875110085807 55.47735459663031 L 1953.6188898404328 55.387375816338135 L 1953.7522525099093 55.29799542935749 L 1953.8875856808547 55.20922237365261 L 1954.0248758200646 55.12106552645507 L 1954.1641091986394 55.033533703376136 L 1954.3052718933573 54.94663565752517 L 1954.4483497880665 54.86038007863435 L 1954.5933285750966 54.77477559218968 L 1954.74019375669 54.689830758568455 L 1954.8889306464505 54.60555407218327 L 1955.0395243708135 54.52195396063252 L 1955.1919598705317 54.439038783857704 L 1955.3462219021826 54.35681683330739 L 1955.5022950396913 54.27529633110813 L 1955.6601636758742 54.19448542924221 L 1955.819812023999 54.114392208732454 L 1955.9812241193642 54.03502467883419 L 1956.1443838208945 53.95639077623426 L 1956.3092748127563 53.878498364257396 L 1956.4758806059872 53.801355232079885 L 1956.6441845401469 53.72496909395066 L 1956.8141697849821 53.649347588419886 L 1956.9858193421105 53.57449827757509 L 1957.1591160467187 53.50042864628498 L 1957.3340425692813 53.42714610145097 L 1957.5105814172914 53.35465797126647 L 1957.6887149370116 53.28297150448409 L 1957.868425315238 53.21209386969077 L 1958.049694581083 53.14203215459092 L 1958.2325046077708 53.072793365297684 L 1958.416837114451 53.00438442563227 L 1958.6026736680267 52.93681217643165 L 1958.7899956849972 52.870083374864436 L 1958.9787844333173 52.80420469375517 L 1959.169021034269 52.739182720917064 L 1959.3606864643511 52.67502395849323 L 1959.5537615571802 52.611734822306424 L 1959.748227005408 52.54932164121754 L 1959.9440633626514 52.48779065649267 L 1960.1412510454384 52.427148021179015 L 1960.3397703351645 52.36739979948956 L 1960.5396013800664 52.3085519661967 L 1960.7407241972064 52.25061040603471 L 1960.94311867447 52.19358091311133 L 1961.1467645725781 52.13746919032833 L 1961.351641527111 52.08228084881122 L 1961.5577290505437 52.02802140734818 L 1961.7650065342957 51.974696291838114 L 1961.9734532507912 51.922310834748146 L 1962.1830483555323 51.87087027458034 L 1962.3937708891833 51.82037975534783 L 1962.6055997796664 51.770844326060484 L 1962.8185138442689 51.72226894021993 L 1963.032491791762 51.674658455324284 L 1963.2475122245291 51.62801763238236 L 1963.4635536407063 51.58235113543759 L 1963.680594436332 51.5376635311016 L 1963.8986129075072 51.49395928809759 L 1964.1175872525669 51.451242776813444 L 1964.3374955742586 51.409518268864694 L 1964.5583158819338 51.368789936667355 L 1964.7800260937454 51.32906185302072 L 1965.0026040388573 51.29033799070003 L 1965.2260274596604 51.252622222059266 L 1965.4502740139985 51.21591831864385 L 1965.6753212774036 51.18022995081354 L 1965.9011467453363 51.14556068737539 L 1966.1277278354382 51.11191399522683 L 1966.3550418897894 51.079293239009054 L 1966.5830661771736 51.047701680770494 L 1966.811777895352 51.01714247964064 L 1967.0411541733436 50.98761869151416 L 1967.2711720737116 50.95913326874524 L 1967.5018085948577 50.93168905985244 L 1967.7330406733222 50.90528880923376 L 1967.9648451860896 50.87993515689227 L 1968.197198952902 50.85563063817208 L 1968.4300787385762 50.83237768350481 L 1968.6634612553278 50.81017861816654 L 1968.8973231650994 50.78903566204531 L 1969.1316410818952 50.768950929419105 L 1969.3663915741188 50.749926428744466 L 1969.6015511669164 50.7319640624556 L 1969.8370963445248 50.71506562677416 L 1970.0730035526224 50.69923281152964 L 1970.3092492006851 50.684467199990365 L 1970.545809664345 50.6707702687052 L 1970.7826612877527 50.658143387355835 L 1971.0197803859432 50.64658781861989 L 1971.2571432472048 50.63610471804463 L 1971.4947261354484 50.62669513393135 L 1971.732505292584 50.61836000723063 L 1971.9704569408932 50.61110017144819 L 1972.20855728541 50.604916352561574 L 1972.446782516298 50.5998091689475 L 1972.685108811233 50.595779131320086 L 1972.9235123377841 50.592826642679725 L 1973.161969255797 50.59095199827282 L 1973.4004557197788 50.59015538556226 L 1973.6389478812819 50.59043688420866 L 1973.8774218912888 50.59179646606236 L 1974.115853902597 50.594233995166334 L 1974.3542200722045 50.59774922776969 L 1974.592496563693 50.6023418123521 L 1974.8306595496113 50.60801128965893 L 1975.06868521386 50.61475709274719 L 1975.3065497540704 50.622578547042174 L 1975.5442293839872 50.63147487040497 L 1975.781700335845 50.64144517321068 L 1976.018938862747 50.6524884584373 L 1976.255921241038 50.66460362176552 L 1976.4926237726777 50.67778945168912 L 1976.72902278761 50.69204462963607 L 1976.9650946461304 50.70736773010048 L 1977.2008157412502 50.72375722078505 L 1977.4361625010558 50.74121146275439 L 1977.6711113910676 50.759728710598836 L 1977.9056389165926 50.77930711260903 L 1978.1397216250732 50.79994471096109 L 1978.373336108434 50.821639441912396 L 1978.6064590054211 50.844389136007905 L 1978.8390670039391 50.86819151829718 L 1979.0711368433822 50.893044208561825 L 1979.3026453169598 50.91894472155353 L 1979.533569274017 50.94589046724256 L 1979.7638856223514 50.973878751076825 L 1979.9935713305192 51.00290677425126 L 1980.2226034301416 51.03297163398772 L 1980.4509590181992 51.064070323825305 L 1980.6786152593238 51.09619973392093 L 1980.9055493880805 51.129356651360375 L 1981.131738711246 51.16353776047952 L 1981.357160610076 51.198739643195935 L 1981.5817925425692 51.23495877935069 L 1981.8056120457188 51.27219154706035 L 1982.0285967377613 51.31043422307917 L 1982.2507243204134 51.349682983171405 L 1982.471972581102 51.38993390249377 L 1982.692319395185 51.43118295598788 L 1982.9117427281649 51.47342601878273 L 1983.1302206378914 51.51665886660727 L 1983.3477312767552 51.56087717621274 L 1983.564252893874 51.60607652580503 L 1983.7797638372665 51.65225239548683 L 1983.9942425560178 51.69940016770967 L 1984.2076676024346 51.74751512773561 L 1984.4200176341906 51.79659246410874 L 1984.6312714164592 51.84662726913632 L 1984.8414078240385 51.89761453937955 L 1985.0504058434626 51.949549176153894 L 1985.2582445751036 52.00242598603895 L 1985.464903235262 52.0562396813978 L 1985.6703611582436 52.11098488090573 L 1985.8745977984277 52.16665611008844 L 1986.07759273232 52.22324780186939 L 1986.2793256605967 52.28075429712656 L 1986.4797764101327 52.339169845258354 L 1986.6789249360204 52.398488604758626 L 1986.876751323573 52.458704643800864 L 1987.0732357903166 52.51981194083135 L 1987.2683586879682 52.581804385171296 L 1987.462100504401 52.64467577762793 L 1987.6544418655944 52.708419831114405 L 1987.845363537573 52.77303017127848 L 1988.0348464283281 52.83850033713999 L 1988.222871589729 52.90482378173691 L 1988.409420219416 52.97199387278003 L 1988.5944736626818 53.040003893316246 L 1988.778013414336 53.108847042400164 L 1988.9600211205568 53.17851643577425 L 1989.1404785807247 53.24900510655722 L 1989.3193677492445 53.32030600594074 L 1989.4966707373485 53.39241200389429 L 1989.672369814885 53.465315889878156 L 1989.8464474120935 53.5390103735645 L 1990.0188861213587 53.61348808556637 L 1990.1896686989537 53.68874157817461 L 1990.358778066763 53.76476332610268 L 1990.5261973139907 53.84154572723915 L 1990.6919096988515 53.91908110340788 L 1990.8558986502453 53.99736170113587 L 1991.0181477694132 54.07637969242858 L 1991.1786408315788 54.156127175552726 L 1991.3373617875695 54.236596175826456 L 1991.4942947654222 54.3177786464168 L 1991.6494240719696 54.39966646914434 L 1991.8027341944103 54.48225145529506 L 1991.95420980186 54.56552534643915 L 1992.1038357468842 54.6494798152569 L 1992.251597067013 54.73410646637139 L 1992.3974789862375 54.81939683718802 L 1992.5414669164875 54.9053423987408 L 1992.6835464590895 54.99193455654518 L 1992.8237034062083 55.079164651457546 L 1992.9619237422655 55.16702396054111 L 1993.098193645343 55.25550369793815 L 1993.2324994885637 55.344595015748695 L 1993.3648278414555 55.43428900491518 L 1993.4951654712931 55.52457669611344 L 1993.6234993444225 55.615449060649595 L 1993.7498166275632 55.706897011362926 L 1993.8741046890918 55.79891140353456 L 1993.9963511003064 55.891483035801954 L 1994.116543636667 55.98460265107904 L 1994.2346702790205 56.07826093748187 L 1994.3507192148013 56.17244852925987 L 1994.4646788392122 56.26715600773234 L 1994.5765377563857 56.36237390223035 L 1994.6862847805237 56.45809269104382 L 1994.7939089370147 56.55430280237361 L 1994.8993994635332 56.65099461528878 L 1995.0027458111144 56.74815846068861 L 1995.1039376452093 56.84578462226952 L 1995.2029648467192 56.943863337496715 L 1995.2998175130062 57.0423847985804 L 1995.3944859588846 57.14133915345658 L 1995.4869607175885 57.240716506772216 L 1995.5772325417192 57.34050692087479 L 1995.6652924041696 57.44070041680606 L 1995.7511314990268 57.54128697529992 L 1995.8347412424525 57.64225653778434 L 1995.9161132735426 57.74359900738722 L 1995.9952394551615 57.84530424994605 L 1996.072111874757 57.94736209502132 L 1996.146722845151 58.04976233691358 L 1996.219064905309 58.15249473568397 L 1996.2891308210853 58.25554901817823 L 1996.3569135859464 58.35891487905398 L 1996.4224064216723 58.46258198181127 L 1996.4856027790343 58.566539959826216 L 1996.5464963384488 58.67077841738765 L 1996.6050810106112 58.77528693073668 L 1996.661350937103 58.88005504910905 L 1996.7153004909783 58.985072295780256 L 1996.7669242773263 59.09032816911312 L 1996.8162171338122 59.19581214360803 L 1996.8631741311906 59.301513670955444 L 1996.9077905738015 59.4074221810907 L 1996.9500620000376 59.513527083251056 L 1996.9899841827914 59.619817767034704 L 1997.027553129878 59.72628360346185 L 1997.0627650844342 59.832913946037564 L 1997.0956165252935 59.939698131816456 L 1997.1261041673392 60.046625482468926 L 1997.154224961833 60.153685305349015 L 1997.1799760967185 60.26086689456366 L 1997.2033549969035 60.36815953204325 L 1997.224359324518 60.47555248861345 L 1997.242986979146 60.5830350250681 L 1997.2592360980384 60.69059639324311 L 1997.2731050562963 60.79822583709131 L 1997.2845924670355 60.905912593758 L 1997.2936971815247 61.01364589465726 L 1997.3004182892998 61.12141496654876 L 1997.304755118256 61.22920903261514 L 1997.3067072347135 61.337017313539604 M 1997.3068282247696 95.6752857281 L 1997.3056357648659 95.78309627301661 L 1997.3020585043998 95.89089603696858 L 1997.2960968010943 95.99867424006935 L 1997.2877512511152 96.1064201045884 L 1997.27702268901 96.21412285602908 L 1997.2639121876261 96.321771724206 L 1997.2484210580028 96.42935594432204 L 1997.2305508492402 96.53686475804484 L 1997.2103033483443 96.64428741458265 L 1997.187680580048 96.75161317175929 L 1997.1626848066096 96.85883129708851 L 1997.1353185275857 96.96593106884711 L 1997.105584479581 97.07290177714718 L 1997.0734856359759 97.17973272500701 L 1997.0390252066277 97.28641322942086 L 1997.002206637551 97.39293262242717 L 1996.9630336105718 97.49928025217542 L 1996.9215100429599 97.60544548399125 L 1996.877640087038 97.71141770143996 L 1996.8314281297646 97.8171863073881 L 1996.7828787922972 97.92274072506322 L 1996.7319969295293 98.02807039911151 L 1996.6787876296041 98.13316479665336 L 1996.623256213408 98.23801340833658 L 1996.565408234036 98.34260574938737 L 1996.5052494762379 98.4469313606588 L 1996.442785955839 98.55097980967666 L 1996.37802391914 98.65474069168278 L 1996.31096984229 98.7582036306754 L 1996.241630430641 98.86135828044685 L 1996.1700126180765 98.96419432561812 L 1996.0961235663178 99.0667014826704 L 1996.0199706642086 99.16886950097337 L 1995.9415615269759 99.27068816381038 L 1995.8609039954679 99.37214728939998 L 1995.7780061353703 99.47323673191414 L 1995.6928762364005 99.57394638249288 L 1995.6055228114772 99.67426617025505 L 1995.51595459587 99.77418606330548 L 1995.4241805463257 99.87369606973812 L 1995.3302098401734 99.97278623863527 L 1995.234051874405 100.0714466610626 L 1995.1357162647366 100.1696674710601 L 1995.035212844648 100.2674388466286 L 1994.9325516643967 100.36475101071201 L 1994.8277429900156 100.46159423217506 L 1994.7207973022848 100.55795882677627 L 1994.611725295684 100.65383515813649 L 1994.5005378773226 100.74921363870249 L 1994.38724616585 100.84408473070569 L 1994.271861490343 100.93843894711594 L 1994.154395389173 101.03226685259024 L 1994.0348596088522 101.12555906441622 L 1993.9132661028589 101.21830625345046 L 1993.7896270304425 101.31049914505132 L 1993.663954755407 101.4021285200065 L 1993.5362618448755 101.49318521545483 L 1993.4065610680327 101.58366012580265 L 1993.2748653948477 101.67354420363434 L 1993.1411879947784 101.762828460617 L 1993.0055422354535 101.85150396839936 L 1992.8679416813357 101.93956185950451 L 1992.7284000923657 102.02699332821673 L 1992.5869314225865 102.11378963146201 L 1992.4435498187468 102.19994208968237 L 1992.2982696188874 102.28544208770374 L 1992.1511053509078 102.37028107559762 L 1992.0020717311115 102.45445056953588 L 1991.8511836627367 102.53794215263929 L 1991.6984562344644 102.6207474758191 L 1991.54390471891 102.70285825861201 L 1991.3875445710964 102.78426629000816 L 1991.2293914269083 102.86496342927225 L 1991.069461101528 102.9449416067576 L 1990.9077695878548 103.02419282471311 L 1990.7443330549054 103.10270915808303 L 1990.579167846197 103.18048275529944 L 1990.4122904781127 103.25750583906745 L 1990.2437176382502 103.33377070714286 L 1990.073466183753 103.4092697331024 L 1989.9015531396249 103.48399536710642 L 1989.727995697027 103.55794013665377 L 1989.5528112115585 103.63109664732913 L 1989.3760172015225 103.70345758354237 L 1989.1976313461723 103.7750157092602 L 1989.0176714839452 103.84576386872968 L 1988.836155610677 103.91569498719377 L 1988.6531018778041 103.98480207159896 L 1988.468528590547 104.05307821129438 L 1988.282454206081 104.12051657872294 L 1988.094897331689 104.1871104301041 L 1987.9058767229023 104.25285310610823 L 1987.7154112816245 104.31773803252251 L 1987.5235200542406 104.38175872090837 L 1987.3302222297139 104.44490876925032 L 1987.1355371376653 104.50718186259614 L 1986.9394842464421 104.5685717736884 L 1986.74208316117 104.62907236358716 L 1986.543353621793 104.68867758228383 L 1986.3433155010991 104.7473814693062 L 1986.1419888027342 104.80517815431453 L 1985.9393936592 104.86206185768845 L 1985.7355503298425 104.91802689110501 L 1985.530479198824 104.97306765810755 L 1985.3242007730873 105.02717865466522 L 1985.116735680303 105.08035446972343 L 1984.9081046668073 105.13258978574503 L 1984.6983285955278 105.18387937924192 L 1984.4874284438968 105.23421812129749 L 1984.2754253017538 105.28360097807949 L 1984.0623403692362 105.33202301134341 L 1983.8481949546597 105.37947937892625 L 1983.6330104723875 105.4259653352308 L 1983.4168084406883 105.4714762317002 L 1983.199610479585 105.51600751728267 L 1982.981438308693 105.55955473888682 L 1982.7623137450475 105.60211354182675 L 1982.5422587009223 105.64367967025764 L 1982.321295181638 105.68424896760128 L 1982.0994452833631 105.72381737696173 L 1981.876731190902 105.76238094153106 L 1981.6531751754787 105.79993580498493 L 1981.428799592508 105.83647821186828 L 1981.2036268793618 105.8720045079709 L 1980.9776795531234 105.90651114069276 L 1980.7509802083373 105.93999465939936 L 1980.5235515147488 105.97245171576672 L 1980.2954162150381 106.00387906411626 L 1980.0665971225446 106.03427356173933 L 1979.8371171189874 106.0636321692115 L 1979.6069991521754 106.09195195069648 L 1979.3762662337133 106.11923007423972 L 1979.144941436701 106.14546381205162 L 1978.913047893425 106.17065054078024 L 1978.680608793047 106.1947877417737 L 1978.447647379283 106.21787300133201 L 1978.21418694808 106.23990401094846 L 1977.980250845287 106.26087856754044 L 1977.745862464319 106.28079457366978 L 1977.5110452438191 106.29965003775246 L 1977.2758226653134 106.31744307425777 L 1977.0402182508637 106.3341719038969 L 1976.8042555607155 106.34983485380084 L 1976.5679581909408 106.36443035768762 L 1976.3313497710797 106.37795695601905 L 1976.0944539617772 106.39041329614655 L 1975.8572944524167 106.40179813244647 L 1975.6198949587515 106.4121103264447 L 1975.382279220533 106.42134884693041 L 1975.1444709991374 106.42951277005928 L 1974.9064940751884 106.43660127944577 L 1974.66837224618 106.44261366624485 L 1974.4301293240967 106.44754932922287 L 1974.1917891330324 106.45140777481762 L 1973.9533755068073 106.45418861718778 L 1973.7149122865858 106.45589157825142 L 1973.4764233184906 106.45651648771386 L 1973.23793245122 106.45606328308465 L 1972.9994635336623 106.4545320096839 L 1972.76104041251 106.45192282063768 L 1972.522686929877 106.44823597686269 L 1972.2844269209127 106.44347184704026 L 1972.0462842114193 106.43763090757939 L 1971.8082826154696 106.43071374256917 L 1971.5704459330248 106.42272104372033 L 1971.3327979475548 106.41365361029608 L 1971.0953624236604 106.40351234903224 L 1970.8581631046957 106.39229827404645 L 1970.6212237103953 106.38001250673689 L 1970.3845679345009 106.36665627567004 L 1970.1482194423932 106.35223091645787 L 1969.9122018687242 106.33673787162431 L 1969.6765388150545 106.32017869046089 L 1969.4412538474935 106.30255502887195 L 1969.2063704943414 106.28386864920897 L 1968.9719122437382 106.26412142009434 L 1968.7379025413131 106.2433153162345 L 1968.504364787842 106.22145241822251 L 1968.2713223369049 106.19853491232995 L 1968.0387984925533 106.17456509028831 L 1967.8068165069774 106.14954534905984 L 1967.5753995781827 106.12347819059778 L 1967.3445708476693 106.09636622159626 L 1967.1143533981176 106.06821215322961 L 1966.8847702510811 106.03901880088118 L 1966.655844364683 106.0087890838619 L 1966.427598631321 105.97752602511825 L 1966.2000558753782 105.94523275093007 L 1965.973238850941 105.91191249059789 L 1965.7471702395223 105.87756857611994 L 1965.5218726477954 105.84220444185907 L 1965.2973686053315 105.8058236241992 L 1965.0736805623476 105.76842976119184 L 1964.8508308874616 105.73002659219209 L 1964.6288418654556 105.69061795748485 L 1964.4077356950463 105.65020779790075 L 1964.1875344866671 105.60880015442207 L 1963.9682602602547 105.56639916777867 L 1963.7499349430495 105.52300907803387 L 1963.5325803674014 105.47863422416049 L 1963.3162182685862 105.43327904360692 L 1963.1008702826339 105.38694807185344 L 1962.8865579441635 105.33964594195861 L 1962.6733026842305 105.291377384096 L 1962.461125828183 105.24214722508117 L 1962.2500485935298 105.19196038788901 L 1962.0400920878185 105.1408218911614 L 1961.8312773065245 105.08873684870541 L 1961.6236251309522 105.03571046898188 L 1961.417156326146 104.98174805458457 L 1961.2118915388144 104.92685500170998 L 1961.0078512952648 104.87103679961766 L 1960.805055999352 104.81429903008126 L 1960.6035259304363 104.7566473668305 L 1960.4032812413564 104.69808757498365 L 1960.204341956415 104.63862551047107 L 1960.0067279693742 104.57826711944969 L 1959.8104590414682 104.51701843770829 L 1959.6155547994265 104.45488559006402 L 1959.4220347335104 104.39187478974986 L 1959.2299181955657 104.32799233779335 L 1959.039224397086 104.26324462238642 L 1958.849972407292 104.19763811824667 L 1958.662181151225 104.13117938596986 L 1958.4758694078544 104.0638750713738 L 1958.291055808199 103.99573190483389 L 1958.107758833465 103.92675670060999 L 1957.9259968131967 103.85695635616503 L 1957.745787923445 103.7863378514753 L 1957.5671501849488 103.71490824833242 L 1957.390101461333 103.64267468963719 L 1957.214659457322 103.56964439868527 L 1957.0408417169706 103.4958246784449 L 1956.8686656219077 103.4212229108266 L 1956.6981483895995 103.34584655594495 L 1956.5293070716268 103.26970315137261 L 1956.3621585519809 103.19280031138662 L 1956.1967195453744 103.11514572620688 L 1956.0330065955704 103.03674716122718 L 1955.871036073727 102.9576124562387 L 1955.7108241767617 102.87774952464599 L 1955.5523869257306 102.79716635267567 L 1955.395740164227 102.71587099857777 L 1955.240899556796 102.63387159181995 L 1955.0878805873697 102.55117633227457 L 1954.9366985577174 102.46779348939864 L 1954.787368585916 102.383731401407 L 1954.6399056048385 102.29899847443839 L 1954.4943243606601 102.21360318171489 L 1954.3506394113836 102.12755406269459 L 1954.2088651253844 102.04085972221772 L 1954.0690156799728 101.95352882964605 L 1953.9311050599772 101.86557011799609 L 1953.7951470563441 101.77699238306568 L 1953.6611552647612 101.68780448255453 L 1953.5291430842954 101.59801533517833 L 1953.399123716055 101.50763391977702 L 1953.2711101618686 101.41666927441683 L 1953.1451152229847 101.32513049548646 L 1953.0211514987923 101.23302673678755 L 1952.8992313855606 101.14036720861921 L 1952.7793670751992 101.04716117685703 L 1952.6615705540391 100.95341796202653 L 1952.5458536016347 100.85914693837105 L 1952.4322277895847 100.76435753291443 L 1952.320704480375 100.66905922451821 L 1952.2112948262445 100.5732615429338 L 1952.1040097680668 100.47697406784954 L 1951.9988600342585 100.3802064279327 L 1951.8958561397055 100.28296829986664 L 1951.7950083847113 100.18526940738312 L 1951.696326853967 100.08711952028997 L 1951.5998214155443 99.98852845349413 L 1951.5055017199056 99.8895060660201 L 1951.4133771989427 99.79006226002413 L 1951.3234570650307 99.69020697980392 L 1951.2357503101075 99.5899502108043 L 1951.1502657047763 99.48930197861863 L 1951.067011797426 99.38827234798623 L 1950.9859969133781 99.28687142178599 L 1950.9072291540533 99.18510934002603 L 1950.830716396162 99.08299627882971 L 1950.7564662909163 98.98054244941808 L 1950.6844862632645 98.87775809708869 L 1950.6147835111499 98.7746535001911 L 1950.5473650047893 98.67123896909912 L 1950.4822374859773 98.56752484517966 L 1950.4194074674115 98.46352149975867 L 1950.3588812320413 98.35923933308405 L 1950.30066483244 98.25468877328554 L 1950.2447640901985 98.14988027533201 L 1950.191184595345 98.04482431998592 L 1950.1399317057844 97.93953141275524 L 1950.0910105467624 97.83401208284296 L 1950.0444260103548 97.72827688209414 L 1950.0001827549756 97.62233638394075 L 1949.9582852049143 97.5162011823443 L 1949.9187375498905 97.40988189073651 L 1949.881543744637 97.30338914095798 L 1949.846707508503 97.19673358219488 L 1949.8142323250834 97.08992587991426 L 1949.7841214418693 96.9829767147973 L 1949.756377869924 96.87589678167143 L 1949.7310043835816 96.7686967884407 L 1949.7080035201698 96.66138745501512 L 1949.6873775797553 96.55397951223858 L 1949.6691286249152 96.44648370081588 L 1949.6532584805298 96.33891077023856 L 1949.6397687336002 96.23127147771005 L 1949.62866073309 96.1235765870699 L 1949.61993558979 96.01583686771744 L 1949.613594176207 95.90806309353479 L 1949.6096371264773 95.80026604180959 L 1949.6080648363027 95.69245649215716" stroke-miterlimit="10" stroke-width="2.7769845610000004" stroke-dasharray=""/></g><g><g/><text fill="black" stroke="none" font-family="sans-serif" font-size="11pt" font-style="normal" font-weight="normal" text-decoration="normal" x="1951.0558582256172" y="123.98419304699999" text-anchor="start" dominant-baseline="alphabetic" xml:space="preserve">SC DB</text></g></g><g><path fill="white" stroke="black" paint-order="fill stroke markers" d=" M 53.96341034204297 161.55516063699997 L 218.94713202740752 161.55516063699997 L 233.64881499740753 176.25684360699998 L 233.64881499740753 199.12612822699998 L 53.96341034204297 199.12612822699998 L 53.96341034204297 161.55516063699997 M 218.94713202740752 161.55516063699997 L 218.94713202740752 176.25684360699998 L 233.64881499740753 176.25684360699998" stroke-miterlimit="10" stroke-width="1.3612669416666667" stroke-dasharray=""/><g><text fill="black" stroke="none" font-family="sans-serif" font-size="11pt" font-style="normal" font-weight="normal" text-decoration="normal" x="81.8662551868151" y="184.42444525699995" text-anchor="start" dominant-baseline="alphabetic" xml:space="preserve">Google automation</text></g><g><g><rect fill="white" stroke="none" x="87.9950838837096" y="223.628933177" width="111.62205757203125" height="21.23576429"/></g><text fill="black" stroke="none" font-family="sans-serif" font-size="11pt" font-style="normal" font-weight="normal" text-decoration="normal" x="90.4453643787096" y="238.33061614699997" text-anchor="start" dominant-baseline="alphabetic" xml:space="preserve">form submission</text></g><g><path fill="none" stroke="black" paint-order="fill stroke markers" d=" M 68.66509331204297 244.86469746699998 L 205.49781464374087 244.86469746699998" stroke-miterlimit="10" stroke-width="1.3612669416666667" stroke-dasharray=""/><g transform="translate(218.94713202740752,244.86469746699998) translate(-218.94713202740752,-244.86469746699998)"><path fill="black" stroke="none" paint-order="stroke fill markers" d=" M 205.33446261074084 238.05836275866665 L 218.94713202740752 244.86469746699998 L 205.33446261074084 251.67103217533332 Z"/></g></g><g><g><rect fill="white" stroke="none" x="289.2470551552265" y="269.36750241699997" width="154.80743660035156" height="21.23576429"/></g><text fill="black" stroke="none" font-family="sans-serif" font-size="11pt" font-style="normal" font-weight="normal" text-decoration="normal" x="291.69733565022653" y="284.06918538699995" text-anchor="start" dominant-baseline="alphabetic" xml:space="preserve">triggers on form submit</text></g><g><path fill="none" stroke="black" paint-order="fill stroke markers" d=" M 218.94713202740752 290.603266707 L 500.90509749973046 290.603266707" stroke-miterlimit="10" stroke-width="1.3612669416666667" stroke-dasharray=""/><g transform="translate(514.3544148833971,290.603266707) translate(-514.3544148833971,-290.603266707)"><path fill="black" stroke="none" paint-order="stroke fill markers" d=" M 500.74174546673044 283.79693199866665 L 514.3544148833971 290.603266707 L 500.74174546673044 297.4096014153333 Z"/></g></g><g><g><rect fill="white" stroke="none" x="238.2771225990742" y="315.106071657" width="256.7473017126562" height="21.23576429"/></g><text fill="black" stroke="none" font-family="sans-serif" font-size="11pt" font-style="normal" font-weight="normal" text-decoration="normal" x="240.7274030940742" y="329.80775462699995" text-anchor="start" dominant-baseline="alphabetic" xml:space="preserve">update sheet with generated unique ID</text></g><g><path fill="none" stroke="black" paint-order="fill stroke markers" d=" M 514.3544148833971 336.341835947 L 232.39644941107417 336.341835947" stroke-miterlimit="10" stroke-width="1.3612669416666667" stroke-dasharray=""/><g transform="translate(218.94713202740752,336.341835947) translate(-218.94713202740752,-336.341835947)"><path fill="black" stroke="none" paint-order="stroke fill markers" d=" M 232.5598014440742 329.53550123866665 L 218.94713202740752 336.341835947 L 232.5598014440742 343.14817065533333 Z"/></g></g><g><g><rect fill="white" stroke="none" x="533.6844054550638" y="360.844640897" width="303.1682001501562" height="21.23576429"/></g><text fill="black" stroke="none" font-family="sans-serif" font-size="11pt" font-style="normal" font-weight="normal" text-decoration="normal" x="536.1346859500638" y="375.54632386699996" text-anchor="start" dominant-baseline="alphabetic" xml:space="preserve">send form data and unique ID (and sheet ID?)</text></g><g><path fill="none" stroke="black" paint-order="fill stroke markers" d=" M 514.3544148833971 382.080405187 L 842.73327879322 382.080405187" stroke-miterlimit="10" stroke-width="1.3612669416666667" stroke-dasharray=""/><g transform="translate(856.1825961768867,382.080405187) translate(-856.1825961768867,-382.080405187)"><path fill="black" stroke="none" paint-order="stroke fill markers" d=" M 842.56992676022 375.27407047866666 L 856.1825961768867 382.080405187 L 842.56992676022 388.88673989533333 Z"/></g></g><g><g><rect fill="white" stroke="none" x="875.5125867485533" y="406.583210137" width="162.15892280640625" height="21.23576429"/></g><text fill="black" stroke="none" font-family="sans-serif" font-size="11pt" font-style="normal" font-weight="normal" text-decoration="normal" x="877.9628672435533" y="421.28489310699996" text-anchor="start" dominant-baseline="alphabetic" xml:space="preserve">message is sent to SQS</text></g><g><path fill="none" stroke="black" paint-order="fill stroke markers" d=" M 856.1825961768867 427.818974427 L 1043.5521827429595 427.818974427" stroke-miterlimit="10" stroke-width="1.3612669416666667" stroke-dasharray=""/><g transform="translate(1057.0015001266263,427.818974427) translate(-1057.0015001266263,-427.818974427)"><path fill="black" stroke="none" paint-order="stroke fill markers" d=" M 1043.3888307099596 421.01263971866666 L 1057.0015001266263 427.818974427 L 1043.3888307099596 434.62530913533334 Z"/></g></g><g><g><rect fill="white" stroke="none" x="1076.331490698293" y="452.321779377" width="173.59771980347656" height="21.23576429"/></g><text fill="black" stroke="none" font-family="sans-serif" font-size="11pt" font-style="normal" font-weight="normal" text-decoration="normal" x="1078.781771193293" y="467.02346234699996" text-anchor="start" dominant-baseline="alphabetic" xml:space="preserve">send message to Lambda</text></g><g><path fill="none" stroke="black" paint-order="fill stroke markers" d=" M 1057.0015001266263 473.557543667 L 1255.8098836897693 473.557543667" stroke-miterlimit="10" stroke-width="1.3612669416666667" stroke-dasharray=""/><g transform="translate(1269.259201073436,473.557543667) translate(-1269.259201073436,-473.557543667)"><path fill="black" stroke="none" paint-order="stroke fill markers" d=" M 1255.6465316567694 466.75120895866667 L 1269.259201073436 473.557543667 L 1255.6465316567694 480.36387837533334 Z"/></g></g><g><g><rect fill="white" stroke="none" x="1288.5891916451028" y="498.06034861700005" width="328.42225898804685" height="21.23576429"/></g><g><rect fill="white" stroke="none" x="1288.5891916451028" y="514.395551917" width="4.90056099" height="21.23576429"/></g><text fill="black" stroke="none" font-family="sans-serif" font-size="11pt" font-style="normal" font-weight="normal" text-decoration="normal" x="1291.0394721401028" y="512.762031587" text-anchor="start" dominant-baseline="alphabetic" xml:space="preserve">generate Google Doc using form data in message</text><text fill="black" stroke="none" font-family="sans-serif" font-size="11pt" font-style="normal" font-weight="normal" text-decoration="normal" x="1291.0394721401028" y="529.097234887" text-anchor="start" dominant-baseline="alphabetic" xml:space="preserve"></text></g><g><path fill="none" stroke="black" paint-order="fill stroke markers" d=" M 1269.259201073436 535.631316207 L 1622.8921238211497 535.631316207" stroke-miterlimit="10" stroke-width="1.3612669416666667" stroke-dasharray=""/><g transform="translate(1636.3414412048164,535.631316207) translate(-1636.3414412048164,-535.631316207)"><path fill="black" stroke="none" paint-order="stroke fill markers" d=" M 1622.7287717881497 528.8249814986667 L 1636.3414412048164 535.631316207 L 1622.7287717881497 542.4376509153334 Z"/></g></g><g><g><rect fill="white" stroke="none" x="612.894859932375" y="560.134121157" width="262.4166132360937" height="21.23576429"/></g><text fill="black" stroke="none" font-family="sans-serif" font-size="11pt" font-style="normal" font-weight="normal" text-decoration="normal" x="615.345140427375" y="574.835804127" text-anchor="start" dominant-baseline="alphabetic" xml:space="preserve">update sheet with Google Doc edit URL</text></g><g><path fill="none" stroke="black" paint-order="fill stroke markers" d=" M 1269.259201073436 581.369885447 L 232.39644941107417 581.369885447" stroke-miterlimit="10" stroke-width="1.3612669416666667" stroke-dasharray=""/><g transform="translate(218.94713202740752,581.369885447) translate(-218.94713202740752,-581.369885447)"><path fill="black" stroke="none" paint-order="stroke fill markers" d=" M 232.5598014440742 574.5635507386667 L 218.94713202740752 581.369885447 L 232.5598014440742 588.1762201553333 Z"/></g></g><g><g><rect fill="white" stroke="none" x="1383.2122678522644" y="605.8726903969999" width="317.0121942907812" height="21.23576429"/></g><text fill="black" stroke="none" font-family="sans-serif" font-size="11pt" font-style="normal" font-weight="normal" text-decoration="normal" x="1385.6625483472644" y="620.5743733669999" text-anchor="start" dominant-baseline="alphabetic" xml:space="preserve">send form data, unique ID and Google Doc URL</text></g><g><path fill="none" stroke="black" paint-order="fill stroke markers" d=" M 1269.259201073436 627.108454687 L 1800.728211538207 627.108454687" stroke-miterlimit="10" stroke-width="1.3612669416666667" stroke-dasharray=""/><g transform="translate(1814.1775289218738,627.108454687) translate(-1814.1775289218738,-627.108454687)"><path fill="black" stroke="none" paint-order="stroke fill markers" d=" M 1800.564859505207 620.3021199786666 L 1814.1775289218738 627.108454687 L 1800.564859505207 633.9147893953333 Z"/></g></g><g><g><rect fill="white" stroke="none" x="1833.5075194935405" y="651.6112596369999" width="120.6199213415625" height="21.23576429"/></g><text fill="black" stroke="none" font-family="sans-serif" font-size="11pt" font-style="normal" font-weight="normal" text-decoration="normal" x="1835.9577999885405" y="666.3129426069999" text-anchor="start" dominant-baseline="alphabetic" xml:space="preserve">save data into DB</text></g><g><path fill="none" stroke="black" paint-order="fill stroke markers" d=" M 1814.1775289218738 672.8470239269999 L 1960.0081140231027 672.8470239269999" stroke-miterlimit="10" stroke-width="1.3612669416666667" stroke-dasharray=""/><g transform="translate(1973.4574314067695,672.8470239269999) translate(-1973.4574314067695,-672.8470239269999)"><path fill="black" stroke="none" paint-order="stroke fill markers" d=" M 1959.8447619901028 666.0406892186666 L 1973.4574314067695 672.8470239269999 L 1959.8447619901028 679.6533586353332 Z"/></g></g></g><g/><g/><g/><g/><g/><g/><g/><g/><g/><g/></g></svg>